<?xml version="1.0" encoding="UTF-8" standalone="no"?>
<!-- Created with Inkscape (http://www.inkscape.org/) -->

<svg
   xmlns:dc="http://purl.org/dc/elements/1.1/"
   xmlns:cc="http://creativecommons.org/ns#"
   xmlns:rdf="http://www.w3.org/1999/02/22-rdf-syntax-ns#"
   xmlns:svg="http://www.w3.org/2000/svg"
   xmlns="http://www.w3.org/2000/svg"
   xmlns:sodipodi="http://sodipodi.sourceforge.net/DTD/sodipodi-0.dtd"
   xmlns:inkscape="http://www.inkscape.org/namespaces/inkscape"
   width="210mm"
   height="297mm"
   id="svg2"
   version="1.1"
   inkscape:version="0.92.3 (2405546, 2018-03-11)"
   sodipodi:docname="naambordje Blanco.svg">
  <defs
     id="defs4" />
  <sodipodi:namedview
     id="base"
     pagecolor="#ffffff"
     bordercolor="#666666"
     borderopacity="1.0"
     inkscape:pageopacity="0.0"
     inkscape:pageshadow="2"
     inkscape:zoom="1.979899"
     inkscape:cx="100.71642"
     inkscape:cy="957.6103"
     inkscape:document-units="px"
     inkscape:current-layer="layer1"
     showgrid="true"
     inkscape:window-width="1920"
     inkscape:window-height="1001"
     inkscape:window-x="-9"
     inkscape:window-y="-9"
     inkscape:window-maximized="1">
    <inkscape:grid
       type="xygrid"
       id="grid2988"
       originx="0"
       originy="0"
       spacingx="1"
       spacingy="1" />
  </sodipodi:namedview>
  <metadata
     id="metadata7">
    <rdf:RDF>
      <cc:Work
         rdf:about="">
        <dc:format>image/svg+xml</dc:format>
        <dc:type
           rdf:resource="http://purl.org/dc/dcmitype/StillImage" />
        <dc:title />
      </cc:Work>
    </rdf:RDF>
  </metadata>
  <g
     inkscape:label="zwart"
     inkscape:groupmode="layer"
     id="layer1"
     style="display:inline">
    <rect
       style="fill:none;stroke:#000000;stroke-width:0.55596614;stroke-opacity:1"
       id="rect2985"
       width="280"
       height="105"
       x="25"
       y="72.362183" />
    <rect
       style="fill:none;stroke:#ff0000;stroke-opacity:1"
       id="rect2990"
       width="270"
       height="95"
       x="30"
       y="77.362183" />
    <path
       style="display:inline;fill:none;stroke:#ff0000;stroke-width:1.03355134;stroke-opacity:1"
       d="m 45.47356,97.438215 c -3.42768,0.61982 -7.00427,-1.52605 -8.32305,-5.12045 -1.33433,-3.63681 -0.1327,-7.7881 2.84949,-9.79808 z m -2.68042,-16.08793 c 3.37732,-0.53318 7.02406,1.57998 8.32305,5.12045 1.34534,3.6668 0.1848,7.8056 -2.84949,9.79808 z"
       id="path3760-1"
       inkscape:connector-curvature="0"
       sodipodi:nodetypes="cscccscc" />
    <path
       style="fill:none;stroke:#ff0000;stroke-opacity:1;display:inline"
       d="m 35.820087,169.56726 c -3.033399,-1.69829 -4.558664,-5.50629 -3.474963,-8.95403 1.096481,-3.48839 4.470042,-5.76107 7.972838,-5.35572 z m 7.359826,-13.41017 c 2.943295,1.72986 4.542402,5.55803 3.474966,8.95402 -1.105527,3.51717 -4.439745,5.80652 -7.972841,5.35573 z"
       id="path3760-1-7"
       inkscape:connector-curvature="0"
       sodipodi:nodetypes="cscccscc" />
    <path
       style="fill:none;stroke:#ff0000;stroke-opacity:1;display:inline"
       d="m 284.79858,93.395145 c -2.72399,-2.159994 -3.62291,-6.162402 -2.00362,-9.393375 1.63838,-3.269076 5.33101,-4.975094 8.72444,-4.016714 z m 9.40284,-12.065924 c 2.63,2.176815 3.59861,6.210892 2.00362,9.393375 -1.6519,3.296048 -5.30834,5.024787 -8.72444,4.016714 z"
       id="path3760-1-4"
       inkscape:connector-curvature="0"
       sodipodi:nodetypes="cscccscc" />
    <path
       style="fill:none;stroke:#ff0000;stroke-opacity:1;display:inline"
       d="m 293.93653,169.09252 c -2.84878,1.99253 -6.9411,1.70933 -9.57407,-0.76631 -2.66402,-2.50483 -3.2428,-6.53112 -1.354,-9.50876 z m -8.87306,-12.46069 c 2.83801,-1.89766 6.98061,-1.67218 9.57406,0.7663 2.686,2.5255 3.2969,6.52361 1.35401,9.50877 z"
       id="path3760-1-7-0"
       inkscape:connector-curvature="0"
       sodipodi:nodetypes="cscccscc" />
    <flowRoot
       xml:space="preserve"
       id="flowRoot10886"
       style="fill:black;fill-opacity:1;stroke:none;font-family:'Blackadder ITC';font-style:normal;font-weight:normal;font-size:18.66666667px;line-height:25px;letter-spacing:0px;word-spacing:0px;-inkscape-font-specification:'Blackadder ITC';font-stretch:normal;font-variant:normal"><flowRegion
         id="flowRegion10888"><rect
           id="rect10890"
           width="20"
           height="20"
           x="185"
           y="107.51968" /></flowRegion><flowPara
         id="flowPara10892" /></flowRoot>  </g>
  <g
     inkscape:groupmode="layer"
     id="layer2"
     inkscape:label="rood"
     style="display:inline" />
</svg>
